<?xml version="1.0" standalone="no"?>
<!DOCTYPE svg PUBLIC "-//W3C//DTD SVG 20010904//EN"
 "http://www.w3.org/TR/2001/REC-SVG-20010904/DTD/svg10.dtd">
<svg version="1.0" xmlns="http://www.w3.org/2000/svg"
 width="100.000000pt" height="100.000000pt" viewBox="0 0 100.000000 100.000000"
 preserveAspectRatio="xMidYMid meet">

<g transform="translate(0.000000,100.000000) scale(0.100000,-0.100000)"
fill="#000000" stroke="none">
<path d="M530 776 c-118 -49 -319 -156 -334 -178 -19 -27 -21 -89 -4 -106 9
-9 5 -18 -22 -41 l-35 -29 23 -24 c12 -13 22 -34 22 -47 0 -42 19 -59 110 -95
130 -52 141 -50 333 45 89 45 170 88 179 96 10 9 21 32 24 52 4 20 15 45 25
57 19 20 19 21 -15 52 -35 31 -35 32 -21 66 29 70 0 119 -93 155 -68 27 -123
26 -192 -3z m172 -32 c42 -16 86 -49 77 -58 -13 -12 -329 -164 -354 -170 -31
-8 -195 39 -195 56 0 11 19 21 209 113 165 80 192 86 263 59z m73 -183 c0 -29
-49 -52 -101 -49 l-49 3 60 32 c62 33 90 38 90 14z m31 -60 c-9 -10 -37 -29
-62 -42 -24 -13 -44 -29 -44 -36 0 -23 -32 -45 -56 -39 -17 5 -51 -8 -114 -39
-49 -25 -98 -45 -107 -45 -29 0 -175 61 -211 88 -20 15 -29 29 -24 34 6 6 19
0 35 -15 31 -32 103 -44 157 -28 21 6 57 9 79 5 22 -4 56 -3 75 0 43 8 96 51
96 77 0 15 5 18 24 13 33 -8 104 13 130 40 26 27 47 15 22 -13z m-209 -28 c14
-37 -80 -73 -142 -54 -22 7 -24 10 -10 11 11 0 45 14 75 30 65 34 69 35 77 13z
m-297 -23 c28 -11 60 -20 70 -20 33 0 22 -17 -15 -23 -57 -9 -125 17 -125 49
0 19 10 18 70 -6z"/>
<path d="M600 700 c0 -5 7 -10 15 -10 8 0 15 5 15 10 0 6 -7 10 -15 10 -8 0
-15 -4 -15 -10z"/>
<path d="M580 640 c0 -5 7 -10 16 -10 8 0 12 5 9 10 -3 6 -10 10 -16 10 -5 0
-9 -4 -9 -10z"/>
<path d="M460 630 c0 -5 7 -10 15 -10 8 0 15 5 15 10 0 6 -7 10 -15 10 -8 0
-15 -4 -15 -10z"/>
<path d="M445 599 c-10 -15 3 -25 16 -12 7 7 7 13 1 17 -6 3 -14 1 -17 -5z"/>
</g>
</svg>
